<?xml version="1.0" encoding="iso-8859-1"?>
<!-- Uploaded to: SVG Repo, www.svgrepo.com, Generator: SVG Repo Mixer Tools -->
<svg height="800px" width="800px" version="1.1" id="Layer_1" xmlns="http://www.w3.org/2000/svg" xmlns:xlink="http://www.w3.org/1999/xlink" 
	 viewBox="0 0 511.883 511.883" xml:space="preserve">
<polygon style="fill:#CCD1D9;" points="341.265,479.887 170.632,479.887 191.893,373.316 319.959,373.285 "/>
<path style="fill:#4FC2E9;" d="M511.882,383.909c0,5.873-4.764,10.654-10.653,10.654H10.67c-5.89,0-10.67-4.781-10.67-10.654V42.651
	c0-5.889,4.78-10.654,10.67-10.654h490.56c5.89,0,10.653,4.765,10.653,10.654v341.258H511.882z"/>
<path style="fill:#E6E9ED;" d="M0,351.978v31.992c0,5.873,4.78,10.654,10.67,10.654h490.56c5.89,0,10.653-4.781,10.653-10.654
	v-31.992H0z"/>
<path style="fill:#434A54;" d="M266.611,373.254c0,5.875-4.78,10.654-10.67,10.654c-5.889,0-10.653-4.779-10.653-10.654
	c0-5.904,4.765-10.684,10.653-10.684C261.831,362.57,266.611,367.349,266.611,373.254z"/>
<path style="fill:#E6E9ED;" d="M341.265,458.547H170.632c-5.889,0-10.669,4.781-10.669,10.686c0,5.873,4.78,10.654,10.669,10.654
	h170.633c5.89,0,10.654-4.781,10.654-10.654C351.92,463.328,347.155,458.547,341.265,458.547z"/>
<path style="fill:#FFCE54;" d="M309.273,181.354c-5.889,0-10.67,4.78-10.67,10.669v63.907h21.324v-63.907
	C319.927,186.133,315.162,181.354,309.273,181.354z"/>
<path style="fill:#FC6E51;" d="M351.92,127.975c-5.889,0-10.654,4.764-10.654,10.654v115.302h21.324V138.628
	C362.589,132.738,357.808,127.975,351.92,127.975z"/>
<path style="fill:#A0D468;" d="M394.582,159.967c-5.889,0-10.67,4.765-10.67,10.654v78.654h21.34v-78.654
	C405.252,164.732,400.47,159.967,394.582,159.967z"/>
<path style="fill:#ED5564;" d="M437.244,95.983c-5.889,0-10.67,4.765-10.67,10.654v149.294h21.324V106.636
	C447.898,100.747,443.132,95.983,437.244,95.983z"/>
<path style="fill:#FFCE54;" d="M90.651,87.516c45.911-26.494,104.601-10.763,131.095,35.133s10.779,104.585-35.133,131.079
	c-45.896,26.486-104.585,10.779-131.079-35.117S44.755,114.025,90.651,87.516z"/>
<path style="fill:#656D78;" d="M458.567,245.275H287.934c-5.89,0-10.653,4.765-10.653,10.654c0,5.904,4.764,10.67,10.653,10.67
	h170.633c5.89,0,10.669-4.766,10.669-10.67C469.236,250.04,464.457,245.275,458.567,245.275z"/>
<g>
	<path style="fill:#434A54;" d="M223.949,287.93H53.316c-5.89,0-10.67,4.781-10.67,10.654c0,5.904,4.78,10.686,10.67,10.686h170.633
		c5.889,0,10.669-4.781,10.669-10.686C234.618,292.711,229.837,287.93,223.949,287.93z"/>
	<path style="fill:#434A54;" d="M458.567,287.93H287.934c-5.89,0-10.653,4.781-10.653,10.654c0,5.904,4.764,10.686,10.653,10.686
		h170.633c5.89,0,10.669-4.781,10.669-10.686C469.236,292.711,464.457,287.93,458.567,287.93z"/>
</g>
<path style="fill:#ED5564;" d="M221.761,218.609c16.527-28.712,17.746-65.204-0.016-95.962
	c-17.746-30.759-49.957-47.958-83.074-48.005v96.009L221.761,218.609z"/>
</svg>