<svg id="Layer_1" data-name="Layer 1" xmlns="http://www.w3.org/2000/svg" viewBox="0 0 815 300"><defs><style>.cls-1{fill:#bd9c27;}.cls-2{fill:#f1c732;}.cls-3{fill:#333;}.cls-4{fill:#f1f2f2;}</style></defs><polygon class="cls-1" points="142.74 14 142.74 286 1.04 239.48 1.04 60.52 142.74 14"/><polygon class="cls-2" points="142.74 14 284.44 60.52 284.44 239.48 142.74 286 142.74 14"/><path d="M180,163.05a7.12,7.12,0,0,0-3.56,1.19,8.27,8.27,0,0,0-2.85,2.85,9,9,0,0,0-1.89,4,15.2,15.2,0,0,0-.72,4.75v28a15.09,15.09,0,0,0,.72,4.74,25,25,0,0,0,1.89,3.56,5.51,5.51,0,0,0,2.85,1.9,6,6,0,0,0,3.56.24,9.85,9.85,0,0,0,3.56-1.66,9.65,9.65,0,0,0,2.85-3.32,12.48,12.48,0,0,0,1.9-4,15.41,15.41,0,0,0,.71-4.75V174.21a15.05,15.05,0,0,0-.71-4.51,16.77,16.77,0,0,0-1.9-3.56,6.9,6.9,0,0,0-2.85-2.37,4.88,4.88,0,0,0-3.56-.72"/><path d="M205.87,121.76a6.5,6.5,0,0,0-3.08.71,8.11,8.11,0,0,0-2.61,2.37,25.66,25.66,0,0,0-1.9,3.56,13.71,13.71,0,0,0-.71,4.51v66a13.34,13.34,0,0,0,.71,4.28,9.29,9.29,0,0,0,1.9,3.32,6.76,6.76,0,0,0,2.61,1.9,4.62,4.62,0,0,0,3.08.23A5.62,5.62,0,0,0,209,207a15,15,0,0,0,2.61-2.84,11.06,11.06,0,0,0,1.66-3.8,13.32,13.32,0,0,0,.71-4.27v-62.9a13.23,13.23,0,0,0-.71-4.27,23.23,23.23,0,0,0-1.66-3.56,12.33,12.33,0,0,0-2.61-2.38,6.93,6.93,0,0,0-3.09-1.18"/><path d="M229.37,138.37a4.15,4.15,0,0,0-2.85.95,11.1,11.1,0,0,0-2.37,2.37,12.39,12.39,0,0,0-1.66,3.56,13.34,13.34,0,0,0-.71,4.28V195.1a11.89,11.89,0,0,0,.71,4,7.87,7.87,0,0,0,1.66,3.09,9.39,9.39,0,0,0,2.37,1.9,4,4,0,0,0,2.85.23,6.4,6.4,0,0,0,2.85-1.42,12.28,12.28,0,0,0,2.37-2.61,24.14,24.14,0,0,0,1.66-3.56,11.66,11.66,0,0,0,.48-4V148.58a23.19,23.19,0,0,0-.48-4,10.65,10.65,0,0,0-1.66-3.32,6.76,6.76,0,0,0-2.37-2.14,5.68,5.68,0,0,0-2.85-.71"/><path d="M250.73,101.34a4.64,4.64,0,0,0-2.61.48,5.53,5.53,0,0,0-2.13,1.9,7.32,7.32,0,0,0-1.43,3.08,10.56,10.56,0,0,0-.47,3.8v80.22a20.56,20.56,0,0,0,.47,3.8,10.57,10.57,0,0,0,1.43,2.85,4.78,4.78,0,0,0,2.13,1.66,4.88,4.88,0,0,0,2.61.24,8.68,8.68,0,0,0,2.61-1.19,7.46,7.46,0,0,0,2.14-2.61,8.27,8.27,0,0,0,1.42-3.32,20.58,20.58,0,0,0,.48-3.8v-76.9a20.58,20.58,0,0,0-.48-3.8,7.3,7.3,0,0,0-1.42-3.08,6.87,6.87,0,0,0-2.14-2.38,3.57,3.57,0,0,0-2.61-1"/><polygon class="cls-3" points="142.74 63.61 142.74 286 1.04 239.48 1.04 60.52 101.2 27.53 142.74 63.61"/><polygon points="101.2 63.61 142.74 63.61 101.2 27.53 101.2 63.61"/><polyline class="cls-4" points="91 87.34 59.91 93.51 59.91 206.49 91 212.66 91 199.84 72.25 196.76 72.25 103.24 91 100.16 91 87.34"/><path class="cls-3" d="M407.62,32.51H343.53V203.88h64.09c56.72,0,93-32,93-86.16C500.9,63.84,464.58,32.51,407.62,32.51ZM406,168H387.68V68.35H406c29.67,0,49.13,16.85,49.13,49.37C455.09,150.71,436.58,168,406,168Z"/><path class="cls-3" d="M720.44,168a224,224,0,0,0,11.16-21.36h.47s4.75,10.44,11.16,21.36l20.65,35.84H813l-55.07-85,55.31-86.4H763.17L743.23,67.64a219.65,219.65,0,0,0-11.16,22.07h-.47s-5-11.15-11.16-22.07L701,32.51H650.9l54.83,86.4-54.83,85h48.89Z"/><path class="cls-3" d="M645.68,200.55l10.2-15.9L601.53,32.51H555L493.78,203.88h45.33L550,168h56.25l11.15,35.84h26.35Zm-85.21-66.21,10.44-33.23c3.33-10.68,7.36-29.43,7.36-29.43h.48s4,18.75,7.35,29.43l10.21,33.23Z"/><path class="cls-3" d="M376.76,231.17c0,5.22-1.66,9.26-5.22,12.11-3.32,2.85-8.31,4.27-14.48,4.27h-5.22V266.3h-8.07V216.46h14.48c6.17,0,10.92,1.18,14,3.79C375.1,222.39,376.76,226.19,376.76,231.17Zm-24.92,9.26h4.27c4.28,0,7.36-.71,9.26-2.14s2.85-3.79,2.85-6.88a8.05,8.05,0,0,0-2.61-6.41c-1.66-1.42-4.51-2.13-8.31-2.13h-5.7v17.56Z"/><path class="cls-3" d="M437.29,266.3l-5-13.77h-19l-5,13.77h-8.78l18.75-50.08h8.78l18.75,50.08Zm-7.36-20.89-4.75-13.53a42.89,42.89,0,0,0-1.42-4.27,32.14,32.14,0,0,1-1.19-4.27A92.86,92.86,0,0,1,420,232.6l-4.51,13.05h14.48Z"/><path class="cls-3" d="M489.27,266.06H481.2v-43H466.48V216H504v7.12H489.27Z"/><path class="cls-3" d="M551.93,266.06h-8.07v-43H529.14V216h37.5v7.12H551.93v43Z"/><path class="cls-3" d="M624.55,266.06H596.31V216.22h28.24v6.88H604.38v13.53h18.75v6.88H604.38v15.67h20.17Z"/><path class="cls-3" d="M662.29,246.13v19.93h-8.07V216.22h14q9.6,0,14.24,3.56c3.08,2.37,4.74,6.17,4.74,10.92,0,6.17-3.32,10.68-9.73,13.29l14,22.07h-9.26l-11.87-19.93Zm0-6.89H668c3.8,0,6.64-.71,8.31-2.13a7.88,7.88,0,0,0,2.61-6.17,7.07,7.07,0,0,0-2.85-6.18c-1.9-1.18-4.51-1.89-8.31-1.89h-5.46Z"/><path class="cls-3" d="M756.28,266.06h-10l-24.68-39.87h-.24l.24,2.13c.24,4.28.47,8.07.47,11.63v25.88h-7.35V216h10l24.45,39.64h.24c0-.48-.24-2.37-.24-5.7-.24-3.32-.24-5.93-.24-7.59V216.22h7.6v49.84Z"/><path class="cls-3" d="M814,253.25a12.85,12.85,0,0,1-4.75,10.44c-3.32,2.61-7.59,3.8-13.29,3.8a32.35,32.35,0,0,1-13.77-2.61V257a38.5,38.5,0,0,0,7.36,2.61,26.43,26.43,0,0,0,7.12,1c3.32,0,5.7-.71,7.12-1.89a6.3,6.3,0,0,0,2.37-5A6,6,0,0,0,804,249a31.94,31.94,0,0,0-8.78-4.51c-4.51-1.89-7.84-4-9.73-6.4a13.28,13.28,0,0,1-2.85-8.55c0-4.27,1.42-7.36,4.51-9.73,2.85-2.37,6.88-3.56,11.86-3.56a34.26,34.26,0,0,1,14.25,3.09L810.63,226a30.6,30.6,0,0,0-11.86-2.85c-2.61,0-4.75.48-5.94,1.66a5.54,5.54,0,0,0-2.13,4.51,7.53,7.53,0,0,0,.71,3.33,6.79,6.79,0,0,0,2.61,2.61,64.76,64.76,0,0,0,6.88,3.32A30.85,30.85,0,0,1,809,242.8a16.88,16.88,0,0,1,3.8,4.51A11.56,11.56,0,0,1,814,253.25Z"/></svg>